<svg width="932" height="1986" fill="none" xmlns="http://www.w3.org/2000/svg"><path d="M177 57.5c-193 277 253 393 447 432 115.5 76 138.413 171.547 102.001 234-75.667 129.782-395.292 171.655-571.934 177.7-25.224.864-46.835 35.871-24.354 24.4C167.445 906.346 244 825.083 244 999c0 241 112 252 318 339 86.667 73.83 320.853 129.16 306 224-35 223.5-580.5 331-807 357" stroke="url(#paint0_linear)" stroke-opacity=".7" stroke-width="5" filter="url(#filter0_d)"/><defs><filter id="filter0_d" x=".715" y=".071" width="930.462" height="1985.41" filterUnits="userSpaceOnUse" color-interpolation-filters="sRGB"><feFlood flood-opacity="0" result="BackgroundImageFix"/><feColorMatrix in="SourceAlpha" values="0 0 0 0 0 0 0 0 0 0 0 0 0 0 0 0 0 0 127 0"/><feOffset dy="4"/><feGaussianBlur stdDeviation="30"/><feColorMatrix values="0 0 0 0 0 0 0 0 0 1 0 0 0 0 1 0 0 0 0.35 0"/><feBlend in2="BackgroundImageFix" result="effect1_dropShadow"/><feBlend in="SourceGraphic" in2="effect1_dropShadow" result="shape"/></filter><linearGradient id="paint0_linear" x1="465.5" y1="471" x2="726" y2="1798" gradientUnits="userSpaceOnUse"><stop stop-color="#E56353"/><stop offset=".516" stop-color="#FFD800"/><stop offset=".83" stop-color="#00B7C3"/></linearGradient></defs></svg>