<svg width="89" height="28" fill="none" xmlns="http://www.w3.org/2000/svg"><path d="M34.54 8.744c.64.578.96 1.452.96 2.619v4.808h-1.813v-.999a2.233 2.233 0 0 1-1.005.822c-.434.19-.96.283-1.574.283-.614 0-1.152-.105-1.612-.315-.46-.21-.817-.502-1.067-.875a2.216 2.216 0 0 1-.377-1.268c0-.736.273-1.328.82-1.774.549-.446 1.41-.668 2.589-.668h2.119v-.122c0-.573-.172-1.015-.515-1.321-.343-.308-.852-.46-1.528-.46-.46 0-.913.071-1.36.215a3.35 3.35 0 0 0-1.129.599l-.752-1.397c.43-.329.947-.579 1.55-.753a6.899 6.899 0 0 1 1.92-.26c1.21-.002 2.134.287 2.775.866zm-1.75 5.806a1.8 1.8 0 0 0 .791-.944v-.952h-1.98c-1.107 0-1.66.364-1.66 1.09 0 .349.139.625.415.83.276.204.66.308 1.152.308.48 0 .908-.111 1.282-.332zM43.926 8.398c.63.348 1.123.84 1.481 1.475.359.635.539 1.367.539 2.198 0 .829-.18 1.564-.538 2.204a3.746 3.746 0 0 1-1.482 1.483c-.63.348-1.344.522-2.142.522-1.105 0-1.98-.368-2.625-1.107v3.98h-1.92V7.967h1.828v1.075c.318-.389.709-.68 1.175-.875a3.97 3.97 0 0 1 1.543-.292c.797 0 1.51.174 2.14.522zm-.614 5.53c.456-.47.683-1.09.683-1.859 0-.768-.229-1.387-.683-1.86-.456-.47-1.037-.706-1.744-.706-.46 0-.874.105-1.244.316-.368.21-.66.509-.875.897-.214.39-.322.84-.322 1.352 0 .51.108.963.322 1.351.215.39.507.69.875.898.368.21.782.315 1.244.315.707.003 1.288-.233 1.744-.704zM47.387 7.968h1.919v8.203h-1.919V7.968zM57.345 8.744c.64.578.96 1.452.96 2.619v4.808h-1.813v-.999a2.233 2.233 0 0 1-1.005.822c-.435.19-.96.283-1.574.283-.614 0-1.152-.105-1.613-.315-.46-.21-.817-.502-1.067-.875a2.217 2.217 0 0 1-.377-1.268c0-.736.273-1.328.822-1.774.548-.446 1.41-.668 2.587-.668h2.12v-.122c0-.573-.172-1.015-.516-1.321-.342-.308-.851-.46-1.527-.46a4.4 4.4 0 0 0-1.36.215 3.35 3.35 0 0 0-1.129.599l-.752-1.397c.43-.329.946-.579 1.55-.753a6.898 6.898 0 0 1 1.92-.26c1.21-.002 2.134.287 2.774.866zm-1.75 5.806a1.8 1.8 0 0 0 .79-.944v-.952h-1.98c-1.106 0-1.659.364-1.659 1.09 0 .349.138.625.415.83.276.204.66.308 1.152.308.48 0 .907-.111 1.281-.332zM61.296 16.018c-.635-.174-1.142-.394-1.52-.66l.736-1.46a4.72 4.72 0 0 0 1.328.592 5.52 5.52 0 0 0 1.527.223c1.147 0 1.72-.302 1.72-.907 0-.286-.145-.486-.437-.598-.292-.113-.76-.22-1.405-.323-.676-.102-1.226-.22-1.651-.354a2.51 2.51 0 0 1-1.105-.7c-.312-.332-.47-.795-.47-1.39 0-.778.326-1.4.976-1.866.65-.466 1.528-.7 2.634-.7.563 0 1.126.064 1.689.192.562.128 1.023.3 1.382.515l-.736 1.46c-.697-.41-1.48-.615-2.35-.615-.562 0-.99.085-1.281.253-.292.169-.437.392-.437.668 0 .308.155.525.469.653.312.129.795.25 1.451.362.655.102 1.192.22 1.613.354.42.133.78.358 1.083.676.302.318.453.768.453 1.351 0 .769-.332 1.383-.998 1.844-.666.46-1.573.69-2.718.69a7.34 7.34 0 0 1-1.953-.26zM73.166 15.726c-.225.184-.499.323-.821.415a3.703 3.703 0 0 1-1.021.138c-.9 0-1.597-.236-2.089-.707-.492-.47-.736-1.157-.736-2.058V9.565h-1.351V8.03h1.35V6.156h1.92V8.03h2.196v1.535h-2.197v3.903c0 .399.098.704.292.914.195.21.477.315.845.315.43 0 .788-.112 1.074-.338l.538 1.367zM81.767 12.684h-6.435c.113.604.407 1.084.884 1.436.476.354 1.067.53 1.773.53.9 0 1.643-.297 2.227-.891l1.028 1.183c-.368.44-.834.773-1.396.999-.563.225-1.199.338-1.905.338-.9 0-1.694-.179-2.38-.538a3.87 3.87 0 0 1-1.59-1.498c-.374-.64-.561-1.365-.561-2.174 0-.798.181-1.518.545-2.158a3.87 3.87 0 0 1 1.512-1.498c.644-.359 1.372-.538 2.18-.538.8 0 1.513.177 2.143.53.63.352 1.12.85 1.474 1.489.354.64.53 1.38.53 2.219 0 .136-.01.326-.03.57zm-5.674-2.726c-.424.364-.683.848-.775 1.452h4.652c-.082-.594-.332-1.075-.752-1.443-.42-.368-.943-.553-1.567-.553-.614-.001-1.133.18-1.558.544zM88.002 7.876v1.827a2.482 2.482 0 0 0-.446-.046c-.748 0-1.33.218-1.75.654-.42.436-.63 1.062-.63 1.882v3.98h-1.92V7.968h1.827v1.199c.554-.862 1.526-1.292 2.919-1.292z" fill="#fff"/><path d="M49.305 4.458v-.396h-1.918v2.97h.003a2.689 2.689 0 0 0 1.915-2.574z" fill="#0CC"/><path d="M24.012 5.38L16.898.666s2.836 3.73 1.307 4.716h5.807z" fill="#62859B"/><path d="M19.781 5.507v-.126h-.002A5.505 5.505 0 0 0 14.276 0a5.505 5.505 0 0 0-5.502 5.38h-.001v.064l-.002.063c0 .04 0 .081.002.12L8.77 10.72l11.01 1.692V5.516l.001-.009z" fill="#FFD800"/><path d="M14.652 6.771c0-.003-2.97-.006-5.878-.009H8.77v9.79a15.325 15.325 0 0 0 4.904 1.18c.011.015 1.2.01 1.2.008 2.738 0 4.764-2.457 4.899-5.182.003-.111.007-.22.007-.331a5.508 5.508 0 0 0-5.128-5.456z" fill="#62859B"/><path d="M8.769 6.762h.004l-5.51-.005H.004L0 6.76a15.469 15.469 0 0 0 8.769 9.791v-9.79z" fill="#E56353"/><path d="M14.871 17.74c0 .002-1.187.006-1.2-.007a15.325 15.325 0 0 1-4.903-1.18v10.986h.013c6.245-1.87 10.824-8.146 10.99-14.981-.136 2.726-2.161 5.182-4.9 5.182z" fill="#0CC"/></svg>